<svg xmlns="http://www.w3.org/2000/svg" width="209.216" height="152.249" viewBox="0 0 209.216 152.249">
  <g id="Group_903" data-name="Group 903" transform="translate(460.75 -44.823)">
    <g id="Group_894" data-name="Group 894" transform="translate(-460.75 78.766)" opacity="0.18">
      <path id="Path_428" data-name="Path 428" d="M-275.034,211.669l-8.932-104.552H-267.4Z" transform="translate(380.292 -107.117)" fill="#faf4e0"/>
      <g id="Group_893" data-name="Group 893" transform="translate(0 2.388)">
        <g id="Group_891" data-name="Group 891" transform="translate(104.608)">
          <path id="Path_429" data-name="Path 429" d="M-268.766,213.664-244.82,111.5l15.746,5.139Z" transform="translate(268.766 -111.5)" fill="#faf4e0"/>
          <path id="Path_430" data-name="Path 430" d="M-268.766,224.08l54.461-89.694,13.375,9.771Z" transform="translate(268.766 -121.916)" fill="#faf4e0"/>
          <path id="Path_431" data-name="Path 431" d="M-268.766,241.89l79.6-68.372,9.684,13.438Z" transform="translate(268.766 -139.726)" fill="#faf4e0"/>
          <path id="Path_432" data-name="Path 432" d="M-268.766,265.336l96.885-40.3,5.037,15.779Z" transform="translate(268.766 -163.171)" fill="#faf4e0"/>
          <path id="Path_433" data-name="Path 433" d="M-268.766,292.1l104.608-8.255-.107,16.563Z" transform="translate(268.766 -189.939)" fill="#faf4e0"/>
        </g>
        <g id="Group_892" data-name="Group 892">
          <path id="Path_434" data-name="Path 434" d="M-301.92,213.664-325.866,111.5l-15.746,5.139Z" transform="translate(406.528 -111.5)" fill="#faf4e0"/>
          <path id="Path_435" data-name="Path 435" d="M-325.427,224.08l-54.461-89.694-13.375,9.771Z" transform="translate(430.035 -121.916)" fill="#faf4e0"/>
          <path id="Path_436" data-name="Path 436" d="M-343.343,241.89l-79.6-68.372-9.684,13.438Z" transform="translate(447.951 -139.726)" fill="#faf4e0"/>
          <path id="Path_437" data-name="Path 437" d="M-353.9,265.336l-96.885-40.3-5.037,15.779Z" transform="translate(458.506 -163.171)" fill="#faf4e0"/>
          <path id="Path_438" data-name="Path 438" d="M-356.142,292.1l-104.608-8.255.107,16.563Z" transform="translate(460.75 -189.939)" fill="#faf4e0"/>
        </g>
      </g>
    </g>
    <g id="Group_902" data-name="Group 902" transform="translate(-460.681 50.169)">
      <g id="Group_898" data-name="Group 898" transform="translate(34.952 0)">
        <g id="Group_895" data-name="Group 895" transform="translate(0 86.137)">
          <path id="Path_439" data-name="Path 439" d="M-253.516,268.21l-29.227-.022-76.234-.06-37.5-.033a49.783,49.783,0,0,1,2.152-8.674A67.52,67.52,0,0,1-383.819,239.6a63.512,63.512,0,0,1,14.843-13.911,68.5,68.5,0,0,1,12.483-6.626,84.5,84.5,0,0,1,19.943-5.258,112.467,112.467,0,0,1,15.949-1.09,106.876,106.876,0,0,1,16.853,1.259,77.814,77.814,0,0,1,11.628,2.7,65.2,65.2,0,0,1,7.923,3.084A51.245,51.245,0,0,1-261,240.742a55.663,55.663,0,0,1,5.269,12.483A53.179,53.179,0,0,1-253.516,268.21Z" transform="translate(396.476 -212.719)" fill="#ef6800"/>
          <path id="Path_440" data-name="Path 440" d="M-250.43,246.627l-122.816-1.139A63.51,63.51,0,0,1-358.4,231.577l84.778-5.928A51.245,51.245,0,0,1-250.43,246.627Z" transform="translate(385.904 -218.604)" fill="#faf4e0" opacity="0.28"/>
          <path id="Path_441" data-name="Path 441" d="M-253.516,302.043l-29.227-.022-76.234-.06-37.5-.033a49.784,49.784,0,0,1,2.152-8.675l138.59-6.2A53.179,53.179,0,0,1-253.516,302.043Z" transform="translate(396.476 -246.553)" fill="#faf4e0" opacity="0.28"/>
          <path id="Path_442" data-name="Path 442" d="M-254.362,213.977c-.243,4.273-.976,8.5-3.371,11.969a18.8,18.8,0,0,1-10.761,7.06,19.324,19.324,0,0,1-9.925.233,12.875,12.875,0,0,1-7.891-5.785c-2.064-3.6-1.832-7.876-1.233-11.835a14.338,14.338,0,0,1,.382-1.806,111.784,111.784,0,0,1,15.948-1.089A107.077,107.077,0,0,1-254.362,213.977Z" transform="translate(347.089 -212.721)" fill="#d34100"/>
          <path id="Path_443" data-name="Path 443" d="M-356.49,224.374l-2.487,49.057-37.5-.031A65.228,65.228,0,0,1-356.49,224.374Z" transform="translate(396.475 -218.023)" fill="#d34100"/>
          <path id="Path_444" data-name="Path 444" d="M-166.352,271.517l-29.227-.021-9.378-51.509C-164.979,232.679-166.352,271.517-166.352,271.517Z" transform="translate(309.312 -216.027)" fill="#d34100"/>
        </g>
        <g id="Group_897" data-name="Group 897" transform="translate(40.66)">
          <path id="Path_445" data-name="Path 445" d="M-311.179,156.88a19.176,19.176,0,0,0,2.485-.208l.172-7.015s-4.1-9.049-10.153-6.889a4.27,4.27,0,0,0-1.365.793C-323.98,146.921-321.712,157.019-311.179,156.88Z" transform="translate(321.855 -94.595)" fill="#f5d280"/>
          <path id="Path_446" data-name="Path 446" d="M-314.444,148.186a4.344,4.344,0,0,1,4.352.882c1.3,1.021,2.754,2.533,3,4.268.069.493-.437.87-.835.509-1.1-1-2.38.245-2.425,1.353a4.137,4.137,0,0,0,.574,1.886.252.252,0,0,1-.388.311c-2.17-1.853-.427-5.353,1.756-4.92-.98-2.13-3.652-4.042-5.761-3.3C-314.8,149.394-315.043,148.421-314.444,148.186Z" transform="translate(318.638 -97.091)" fill="#034b94"/>
          <path id="Path_447" data-name="Path 447" d="M-254.989,198.97l-1.538,12.763-.207,1.719s-2.9,6.828-12.108,7.2-9.078-7.2-9.078-7.2l1.3-9.9.6-4.578Z" transform="translate(301.859 -120.325)" fill="#f5d280"/>
          <path id="Path_448" data-name="Path 448" d="M-253.9,198.97l-1.538,12.764-20.092-8.186.6-4.578Z" transform="translate(300.773 -120.325)" fill="#034b94"/>
          <path id="Path_449" data-name="Path 449" d="M-316.978,81.331c-1.878-2.247-3.5-5.048-3.08-7.947.475-3.234,3.572-5.683,6.821-6.049a12.284,12.284,0,0,1,9.012,3.133,17.745,17.745,0,0,1-3.9-8.6,4.867,4.867,0,0,1,.2-2.837,4.485,4.485,0,0,1,1.553-1.655c3.795-2.66,9.051-2.642,13.258-.7s7.452,5.564,9.781,9.569a7.022,7.022,0,0,1,.755-7.258,10.967,10.967,0,0,1,6.412-3.955,16.922,16.922,0,0,1,16.488,5.81c3.911,4.732,7.667,12.3,6.187,18.262a8.419,8.419,0,0,1,3.7-1.1,2.888,2.888,0,0,1,2.881,2.139c.3,1.945-1.98,3.173-3.851,3.783a2.293,2.293,0,0,1,2.021,2.9,3.425,3.425,0,0,1-3.145,2.243c-1.372.078-5.218-1.362-6.4-2.056-1.87-1.1-3.5-2.567-5.349-3.692a24.26,24.26,0,0,0-6.595-2.62,42.515,42.515,0,0,0-25.713,1.611c-3.287,1.27-6.811,4.509-10.262,4.9C-310.339,87.673-314.527,84.265-316.978,81.331Z" transform="translate(321.068 -54.635)" fill="#034b94"/>
          <path id="Path_450" data-name="Path 450" d="M-277.7,88.192a21.129,21.129,0,0,0-23.568,18.746c-1.967,18.927-.72,43.369,20.778,45.458,29.081,2.826,31.254-33.255,31.884-48.19a10.461,10.461,0,0,0-6.018-9.887C-259.974,91.794-266.3,89.547-277.7,88.192Z" transform="translate(312.786 -69.839)" fill="#f5d280"/>
          <path id="Path_451" data-name="Path 451" d="M-275.817,91.732a2.432,2.432,0,0,0,1.135,3.052,6.2,6.2,0,0,0,3.508.548,32.816,32.816,0,0,0,11.106-2.647c.466,2.558,2.914,4.417,5.473,4.875a14.086,14.086,0,0,0,7.6-1.2,1.9,1.9,0,0,0,1.089-.8,1.863,1.863,0,0,0-.278-1.647c-3.827-6.99-12.126-10.236-19.988-11.541a40.491,40.491,0,0,0-13.469-.266c-2.848.49-14.494,3.984-13.243,8.469.6,2.16,5.967,2.15,7.746,2.234C-283.7,92.876-276.6,93.179-275.817,91.732Z" transform="translate(308.71 -66.932)" fill="#034b94"/>
          <g id="Group_896" data-name="Group 896" transform="translate(20.109 56.963)">
            <path id="Path_452" data-name="Path 452" d="M-257.46,164.421a19.848,19.848,0,0,1-.754,4.578c-1.084,3.67-3.556,7.143-8.9,7.9a20.734,20.734,0,0,1-6.849-.062c-10.3-1.987-10.983-12.82-10.983-12.82a31.117,31.117,0,0,0,4.6.913c5.595.743,15.226.759,22.642-5.75A25.432,25.432,0,0,1-257.46,164.421Z" transform="translate(284.949 -159.177)" fill="#034b94"/>
            <path id="Path_453" data-name="Path 453" d="M-249.04,176.959c-1.084,3.67-3.556,7.143-8.9,7.9a20.735,20.735,0,0,1-6.849-.062l.119-.181a18.793,18.793,0,0,1,6.694-6.147,14.086,14.086,0,0,1,5.832-1.781A10.835,10.835,0,0,1-249.04,176.959Z" transform="translate(275.775 -167.137)" fill="#f1546b"/>
            <path id="Path_454" data-name="Path 454" d="M-253.624,164.421a24.216,24.216,0,0,1-9.234,4.263,56.214,56.214,0,0,1-12.892,1.2,28.521,28.521,0,0,1-.764-4.955c5.595.743,15.226.759,22.642-5.75A25.431,25.431,0,0,1-253.624,164.421Z" transform="translate(281.112 -159.177)" fill="#faf4e0"/>
          </g>
          <path id="Path_455" data-name="Path 455" d="M-247.523,189.791a9.449,9.449,0,0,0,7.133-4.514S-239.872,193.182-247.523,189.791Z" transform="translate(288.025 -114.093)" fill="#ef6800"/>
          <path id="Path_456" data-name="Path 456" d="M-273.487,144.082s-3.688-1.314-3.974,0,5.837,4.476,8.423,2.239,4.866-14.529,1.255-14.837S-273.487,144.082-273.487,144.082Z" transform="translate(301.655 -89.609)" fill="#ef6800"/>
          <path id="Path_457" data-name="Path 457" d="M-291.735,121.227s6.558-3.745,11.179.39c0,0,1.9-1.55,1.649-5.274C-278.907,116.342-290.571,110.38-291.735,121.227Z" transform="translate(308.147 -81.975)" fill="#034b94"/>
          <path id="Path_458" data-name="Path 458" d="M-223.027,127.177a2.468,2.468,0,0,0-.764,1.557,1.619,1.619,0,0,0,1.4,1.376,4.735,4.735,0,0,0,2.087-.261,9.6,9.6,0,0,0-1.533,3.158,3.263,3.263,0,0,0,.945,3.217,3.088,3.088,0,0,0,2.934.331,6.525,6.525,0,0,0,2.461-1.81c2.764-3,4.2-6.965,5.419-10.857a39.671,39.671,0,0,0,1.971-8.91,15.842,15.842,0,0,0-1.687-8.858c-.679-1.218-2.73-3.912-4.435-3.629-1.351.224-.765,4.117-.879,5.358a35.968,35.968,0,0,1-3.706,12.868A34.819,34.819,0,0,1-223.027,127.177Z" transform="translate(277.225 -76.406)" fill="#034b94"/>
          <path id="Path_459" data-name="Path 459" d="M-210.778,159.761a19.248,19.248,0,0,1-2.354-.821l.779-3.36a11.436,11.436,0,0,1,5.747-7.589c2.016-1.057,4.391-1.525,6.61-.024a4.268,4.268,0,0,1,1.124,1.108C-195.9,153.313-200.613,162.525-210.778,159.761Z" transform="translate(272.373 -96.678)" fill="#f5d280"/>
          <path id="Path_460" data-name="Path 460" d="M-199.223,152.887a4.344,4.344,0,0,0-4.435-.233c-1.517.663-3.3,1.765-3.966,3.385-.189.46.206.952.682.7,1.312-.692,2.244.831,2.011,1.915a4.137,4.137,0,0,1-1.027,1.684.252.252,0,0,0,.3.4c2.564-1.253,1.75-5.077-.472-5.2,1.48-1.818,4.545-3,6.4-1.756C-199.183,154.145-198.7,153.264-199.223,152.887Z" transform="translate(269.888 -99.021)" fill="#034b94"/>
          <path id="Path_461" data-name="Path 461" d="M-283.98,144.066a5.016,5.016,0,0,0-4.62-2.992,4.126,4.126,0,0,0-4,2.984.3.3,0,0,0,.489.284c1.04-.917,2.034-1.823,3.515-1.81a3.514,3.514,0,0,1,2.911,1.659.6.6,0,0,0,.294.546l.081.108C-284.845,145.736-283.568,144.954-283.98,144.066Z" transform="translate(308.544 -93.975)" fill="#034b94"/>
          <path id="Path_462" data-name="Path 462" d="M-235.879,128.642s-4.538-6.036-10.419-4.07c0,0-1.13-2.175.575-5.5C-245.724,119.076-232.652,118.22-235.879,128.642Z" transform="translate(287.635 -83.956)" fill="#034b94"/>
          <path id="Path_463" data-name="Path 463" d="M-248.718,147.861a5.017,5.017,0,0,1,5.427-.919,4.127,4.127,0,0,1,2.495,4.326.3.3,0,0,1-.562.068c-.591-1.254-1.145-2.479-2.511-3.054a3.514,3.514,0,0,0-3.33.37.6.6,0,0,1-.486.385l-.117.068C-248.585,149.737-249.448,148.513-248.718,147.861Z" transform="translate(288.694 -96.45)" fill="#034b94"/>
        </g>
      </g>
      <g id="Group_901" data-name="Group 901" transform="translate(0 18.527)">
        <path id="Path_465" data-name="Path 465" d="M-377.695,211.7a21.7,21.7,0,0,1,4.364-10.049s-.809-2.36-3.844-.27-3.679,3.979-3.679,3.979l-1.919,2.9S-379.294,213.794-377.695,211.7Z" transform="translate(425.191 -139.557)" fill="#f5d280"/>
        <path id="Path_466" data-name="Path 466" d="M-403.308,211.454s-1.851,8.446,3.6,10.291c6.143,2.08,11.238-1.509,12.543-5.145l-5.563-5.145Z" transform="translate(434.676 -144.533)" fill="#f5d280"/>
        <path id="Path_471" data-name="Path 471" d="M-398.776,225.035s-12.188,40.22-3.06,49.349c12.21,12.21,18.79-2.565,18.562-8.042s-9.129-41.306-9.129-41.306Z" transform="translate(435.411 -150.714)" fill="#f5d280"/>
        <path id="Path_472" data-name="Path 472" d="M-403.055,203.683s.879-4.816,1.738-6.412c1.666-3.1,9.594-3.469,11.243-2.233s-5.512,2.233-5.512,2.233,4.391-.093,4.068,1.155c-.221.851-4.994,2.218-4.994,2.218s4.521.539,4.348,1.664c-.185,1.2-6.355,2.2-6.355,2.2" transform="translate(434.423 -136.762)" fill="#f5d280"/>
      </g>
    </g>
    <path id="Path_473" data-name="Path 473" d="M-150.908,164.775l27.925-10.18v16.455Z" transform="translate(-141.015 -49.959)" fill="#f1546b"/>
    <path id="Path_474" data-name="Path 474" d="M-174.628,196.741l29.588,2.83-7.082,14.853Z" transform="translate(-130.22 -69.141)" fill="#ef6800"/>
    <path id="Path_476" data-name="Path 476" d="M-361.822,83.635l-7.416-29.12,14.031.214Z" transform="translate(-41.649 -4.411)" fill="#f1546b"/>
    <path id="Path_477" data-name="Path 477" d="M-438.036,189.485l-20.987,2.853,5.686,8.7Z" transform="translate(-0.786 -65.839)" fill="#ef6800"/>
    <path id="Path_478" data-name="Path 478" d="M-428.5,210.682l-9.571,18.195,9.571,2.156Z" transform="translate(-10.321 -75.486)" fill="#f1546b"/>
    <path id="Path_479" data-name="Path 479" d="M-398.933,68.783l-3.182-23.96-13.406,4.554Z" transform="translate(-20.584 0)" fill="#ef6800"/>
    <circle id="Ellipse_18" data-name="Ellipse 18" cx="6.942" cy="6.942" r="6.942" transform="translate(-270.94 163.102)" fill="#faf4e0"/>
    <circle id="Ellipse_19" data-name="Ellipse 19" cx="6.942" cy="6.942" r="6.942" transform="translate(-460.302 166.031)" fill="#faf4e0"/>
    <path id="Path_483" data-name="Path 483" d="M-121.77,255.457a37.938,37.938,0,0,0-3.966-6.195c-1.325-1.631-2-1.369-3.662-.16q-1.386,1.01-2.716,2.1c-.967.791-2.031,2.174-3.109,2.736-2,1.042-2.465-1.025-3.259-2.562l-2.377-4.6a.835.835,0,0,0-1.119-.293,26.458,26.458,0,0,0-4.3,2.625c-.832.623-.018,2.043.825,1.412a26.341,26.341,0,0,1,3.519-2.224c1.193,2.474,2.3,5.509,3.937,7.586.853,1.082,1.649,1.123,2.766.3,1.98-1.46,3.662-3.386,5.632-4.9,1.081-.828,1.851-1.389,3.112-.314a7.352,7.352,0,0,1,1.029,1.464,43.06,43.06,0,0,1,2.271,3.851C-122.689,257.212-121.277,256.387-121.77,255.457Z" transform="translate(-142.966 -91.733)" fill="#034b94"/>
    <path id="Path_484" data-name="Path 484" d="M-113.225,288.277l-8.394-4.2c-.938-.469-1.767.94-.825,1.411l8.393,4.2C-113.112,290.158-112.283,288.749-113.225,288.277Z" transform="translate(-153.781 -108.849)" fill="#034b94"/>
    <path id="Path_485" data-name="Path 485" d="M-114.123,278.913l-2.056-.471c-1.024-.234-1.461,1.341-.435,1.576l2.056.471C-113.533,280.723-113.1,279.148-114.123,278.913Z" transform="translate(-156.357 -106.314)" fill="#034b94"/>
    <path id="Path_486" data-name="Path 486" d="M-426.759,285.343l-8.915,4.684c-.932.489-.106,1.9.825,1.411l8.915-4.684C-425,286.265-425.828,284.854-426.759,285.343Z" transform="translate(-11.226 -109.419)" fill="#034b94"/>
    <path id="Path_487" data-name="Path 487" d="M-423.628,277.117l-3.582,1.537c-.964.414-.132,1.822.825,1.411l3.582-1.536C-421.839,278.115-422.671,276.707-423.628,277.117Z" transform="translate(-15.069 -105.688)" fill="#034b94"/>
  </g>
</svg>
